<mxfile host="65bd71144e">
    <diagram id="0DfVgZLiSyY7PZttRIFc" name="Page-1">
        <mxGraphModel dx="878" dy="662" grid="1" gridSize="10" guides="1" tooltips="1" connect="1" arrows="1" fold="1" page="1" pageScale="1" pageWidth="850" pageHeight="1100" math="0" shadow="0">
            <root>
                <mxCell id="0"/>
                <mxCell id="1" parent="0"/>
                <mxCell id="39" value="" style="rounded=0;whiteSpace=wrap;html=1;strokeColor=none;strokeWidth=3;fontColor=#ffffff;fillColor=#60a917;" parent="1" vertex="1">
                    <mxGeometry x="220" y="448.44" width="430" height="141.56" as="geometry"/>
                </mxCell>
                <mxCell id="2" value="&lt;b style=&quot;font-style: italic;&quot;&gt;&lt;br&gt;&lt;/b&gt;" style="rounded=0;whiteSpace=wrap;html=1;fillColor=#60a917;fontColor=#ffffff;strokeColor=#2D7600;" parent="1" vertex="1">
                    <mxGeometry x="220" y="50" width="430" height="200" as="geometry"/>
                </mxCell>
                <mxCell id="3" value="FOOD&lt;br&gt;ingredients &lt;b&gt;&lt;i&gt;string&lt;/i&gt;&lt;/b&gt;&lt;br&gt;weight&lt;b&gt; &lt;i style=&quot;&quot;&gt;float&lt;/i&gt;&lt;/b&gt;" style="rounded=0;whiteSpace=wrap;html=1;fillColor=#60a917;fontColor=#ffffff;strokeColor=#2D7600;" parent="1" vertex="1">
                    <mxGeometry x="220" y="300" width="150" height="100" as="geometry"/>
                </mxCell>
                <mxCell id="4" value="GAMES&lt;br&gt;material &lt;b&gt;&lt;i&gt;string&lt;/i&gt;&lt;/b&gt;&lt;br&gt;size&amp;nbsp;" style="rounded=0;whiteSpace=wrap;html=1;fillColor=#60a917;fontColor=#ffffff;strokeColor=#2D7600;" parent="1" vertex="1">
                    <mxGeometry x="375" y="302.5" width="140" height="97.5" as="geometry"/>
                </mxCell>
                <mxCell id="5" value="ACCESSORIES&lt;br&gt;material&amp;nbsp;&lt;b&gt;&lt;i&gt;string&lt;/i&gt;&lt;/b&gt;&lt;br&gt;size&amp;nbsp;" style="rounded=0;whiteSpace=wrap;html=1;fillColor=#60a917;fontColor=#ffffff;strokeColor=#2D7600;" parent="1" vertex="1">
                    <mxGeometry x="520" y="302.5" width="130" height="97.5" as="geometry"/>
                </mxCell>
                <mxCell id="6" value="CLASSI" style="rounded=0;whiteSpace=wrap;html=1;fillColor=#60a917;fontColor=#ffffff;strokeColor=#2D7600;" parent="1" vertex="1">
                    <mxGeometry x="660" y="10" width="80" height="20" as="geometry"/>
                </mxCell>
                <mxCell id="14" value="CATEGORY&lt;br&gt;specie &lt;b&gt;&lt;i&gt;string&lt;/i&gt;&lt;/b&gt;" style="rounded=0;whiteSpace=wrap;html=1;fontColor=#ffffff;fillColor=#60a917;strokeColor=#2D7600;" parent="1" vertex="1">
                    <mxGeometry x="40" y="100" width="120" height="50" as="geometry"/>
                </mxCell>
                <mxCell id="16" value="ISTANZE" style="rounded=0;whiteSpace=wrap;html=1;fontColor=#ffffff;fillColor=#1ba1e2;strokeColor=#006EAF;" parent="1" vertex="1">
                    <mxGeometry x="750" y="10" width="90" height="20" as="geometry"/>
                </mxCell>
                <mxCell id="17" value="CANE" style="rounded=0;whiteSpace=wrap;html=1;fontColor=#ffffff;fillColor=#1ba1e2;strokeColor=#006EAF;" parent="1" vertex="1">
                    <mxGeometry x="40" y="170" width="120" height="20" as="geometry"/>
                </mxCell>
                <mxCell id="18" value="GATTO" style="rounded=0;whiteSpace=wrap;html=1;fontColor=#ffffff;fillColor=#1ba1e2;strokeColor=#006EAF;" parent="1" vertex="1">
                    <mxGeometry x="40" y="190" width="120" height="20" as="geometry"/>
                </mxCell>
                <mxCell id="19" value="UCCELLI" style="rounded=0;whiteSpace=wrap;html=1;fontColor=#ffffff;fillColor=#1ba1e2;strokeColor=#006EAF;" parent="1" vertex="1">
                    <mxGeometry x="40" y="210" width="120" height="20" as="geometry"/>
                </mxCell>
                <mxCell id="20" value="PESCI" style="rounded=0;whiteSpace=wrap;html=1;fontColor=#ffffff;fillColor=#1ba1e2;strokeColor=#006EAF;" parent="1" vertex="1">
                    <mxGeometry x="40" y="230" width="120" height="20" as="geometry"/>
                </mxCell>
                <mxCell id="21" value="ID&lt;br&gt;cookies???&lt;br&gt;carta di credito &lt;b&gt;&lt;i&gt;boolean&lt;/i&gt;&lt;/b&gt;&amp;nbsp;" style="rounded=0;whiteSpace=wrap;html=1;fontColor=#ffffff;fillColor=#60a917;strokeColor=#FFFFFF;perimeterSpacing=3;strokeWidth=4;" parent="1" vertex="1">
                    <mxGeometry x="230" y="468.44" width="150" height="111.56" as="geometry"/>
                </mxCell>
                <mxCell id="22" value="UTENTI REGISTRATI&lt;br&gt;password &lt;b&gt;&lt;i&gt;string&lt;/i&gt;&lt;/b&gt;&lt;br&gt;nome &lt;i&gt;&lt;b&gt;string&lt;/b&gt;&lt;/i&gt;&lt;br&gt;cognome &lt;b&gt;&lt;i&gt;string&lt;/i&gt;&lt;/b&gt;" style="rounded=0;whiteSpace=wrap;html=1;fontColor=#ffffff;fillColor=#60a917;strokeColor=#2D7600;" parent="1" vertex="1">
                    <mxGeometry x="230" y="650" width="200" height="120" as="geometry"/>
                </mxCell>
                <mxCell id="23" value="UTENTI NON REGISTRATI" style="rounded=0;whiteSpace=wrap;html=1;fontColor=#ffffff;fillColor=#60a917;strokeColor=#2D7600;" parent="1" vertex="1">
                    <mxGeometry x="450" y="650" width="210" height="120" as="geometry"/>
                </mxCell>
                <mxCell id="28" value="id&amp;nbsp;&lt;i&gt;&lt;b&gt;integers&lt;/b&gt;&lt;/i&gt;&lt;br&gt;name&amp;nbsp;&lt;i&gt;&lt;b&gt;string&lt;/b&gt;&lt;/i&gt;&lt;br&gt;description&amp;nbsp;&lt;i&gt;&lt;b&gt;string&lt;/b&gt;&lt;/i&gt;&lt;br&gt;price&amp;nbsp;&lt;i&gt;&lt;b&gt;floating&lt;/b&gt;&lt;br&gt;&lt;/i&gt;img&amp;nbsp;&lt;b style=&quot;font-style: italic;&quot;&gt;string&lt;br&gt;&amp;nbsp;&lt;/b&gt;category&amp;nbsp;&lt;b style=&quot;font-style: italic;&quot;&gt;category&lt;/b&gt;" style="rounded=0;whiteSpace=wrap;html=1;fontColor=#ffffff;fillColor=#60a917;strokeColor=default;strokeWidth=4;perimeterSpacing=7;" parent="1" vertex="1">
                    <mxGeometry x="230" y="80" width="140" height="160" as="geometry"/>
                </mxCell>
                <mxCell id="29" value="&lt;font color=&quot;#2f4393&quot;&gt;&lt;b&gt;create($fileName, $className)&lt;/b&gt;&lt;br&gt;ritorna un array di istanze della classe&amp;nbsp;&lt;br&gt;&lt;/font&gt;" style="rounded=0;whiteSpace=wrap;html=1;fontColor=#ffffff;fillColor=#60a917;strokeColor=default;strokeWidth=4;perimeterSpacing=7;" parent="1" vertex="1">
                    <mxGeometry x="380" y="80" width="260" height="160" as="geometry"/>
                </mxCell>
                <mxCell id="32" value="PRODOTTI" style="rounded=0;whiteSpace=wrap;html=1;strokeColor=none;strokeWidth=4;fontColor=#ffffff;fillColor=#60a917;movable=0;resizable=0;rotatable=0;deletable=0;editable=0;connectable=0;" parent="1" vertex="1">
                    <mxGeometry x="365" y="60" width="120" as="geometry"/>
                </mxCell>
                <mxCell id="34" value="" style="endArrow=classic;startArrow=classic;html=1;fontColor=#FFFFFF;exitX=1;exitY=0.5;exitDx=0;exitDy=0;" parent="1" source="14" edge="1">
                    <mxGeometry width="50" height="50" relative="1" as="geometry">
                        <mxPoint x="210" y="210" as="sourcePoint"/>
                        <mxPoint x="250" y="190" as="targetPoint"/>
                    </mxGeometry>
                </mxCell>
                <mxCell id="36" value="" style="shape=flexArrow;endArrow=classic;html=1;fontColor=#FFFFFF;width=14;endSize=4.48;exitX=0.299;exitY=1.018;exitDx=0;exitDy=0;exitPerimeter=0;entryX=0.5;entryY=0;entryDx=0;entryDy=0;" parent="1" target="3" edge="1" source="2">
                    <mxGeometry width="50" height="50" relative="1" as="geometry">
                        <mxPoint x="360" y="260" as="sourcePoint"/>
                        <mxPoint x="270" y="278.44" as="targetPoint"/>
                        <Array as="points"/>
                    </mxGeometry>
                </mxCell>
                <mxCell id="37" value="" style="shape=flexArrow;endArrow=classic;html=1;fontColor=#FFFFFF;width=17.647058823529413;endSize=6.08235294117647;exitX=0.52;exitY=0.999;exitDx=0;exitDy=0;exitPerimeter=0;" parent="1" target="4" edge="1" source="2">
                    <mxGeometry width="50" height="50" relative="1" as="geometry">
                        <mxPoint x="460" y="250" as="sourcePoint"/>
                        <mxPoint x="260" y="160" as="targetPoint"/>
                    </mxGeometry>
                </mxCell>
                <mxCell id="38" value="" style="shape=flexArrow;endArrow=classic;html=1;fontColor=#FFFFFF;entryX=0.657;entryY=-0.04;entryDx=0;entryDy=0;entryPerimeter=0;exitX=0.784;exitY=0.999;exitDx=0;exitDy=0;exitPerimeter=0;" parent="1" edge="1" target="5" source="2">
                    <mxGeometry width="50" height="50" relative="1" as="geometry">
                        <mxPoint x="560" y="250" as="sourcePoint"/>
                        <mxPoint x="620" y="328.44" as="targetPoint"/>
                    </mxGeometry>
                </mxCell>
                <mxCell id="40" value="UTENTI" style="rounded=0;whiteSpace=wrap;html=1;strokeColor=none;strokeWidth=3;fontColor=#ffffff;fillColor=#60a917;" parent="1" vertex="1">
                    <mxGeometry x="380" y="448.44" width="120" height="20" as="geometry"/>
                </mxCell>
                <mxCell id="41" value="&lt;font color=&quot;#3333ff&quot;&gt;mettere prodotti nel carrello&lt;br&gt;pagare&lt;br&gt;&lt;/font&gt;" style="rounded=0;whiteSpace=wrap;html=1;strokeColor=#FFFFFF;strokeWidth=4;fontColor=#ffffff;fillColor=#60a917;" parent="1" vertex="1">
                    <mxGeometry x="390" y="468.44" width="250" height="111.56" as="geometry"/>
                </mxCell>
                <mxCell id="42" value="" style="shape=flexArrow;endArrow=classic;html=1;fontColor=#FFFFFF;entryX=0.5;entryY=0;entryDx=0;entryDy=0;" parent="1" target="22" edge="1">
                    <mxGeometry width="50" height="50" relative="1" as="geometry">
                        <mxPoint x="370" y="590" as="sourcePoint"/>
                        <mxPoint x="320" y="640" as="targetPoint"/>
                    </mxGeometry>
                </mxCell>
                <mxCell id="43" value="" style="shape=flexArrow;endArrow=classic;html=1;fontColor=#FFFFFF;" parent="1" source="39" edge="1">
                    <mxGeometry width="50" height="50" relative="1" as="geometry">
                        <mxPoint x="475" y="558.44" as="sourcePoint"/>
                        <mxPoint x="550" y="650" as="targetPoint"/>
                    </mxGeometry>
                </mxCell>
                <mxCell id="44" value="" style="rounded=0;whiteSpace=wrap;html=1;strokeColor=none;strokeWidth=3;fontColor=#ffffff;fillColor=#60a917;" vertex="1" parent="1">
                    <mxGeometry x="230" y="820" width="430" height="140" as="geometry"/>
                </mxCell>
                <mxCell id="45" value="quantità &lt;i style=&quot;font-weight: bold;&quot;&gt;integer&lt;/i&gt;&lt;br&gt;prezzo&amp;nbsp;&lt;i style=&quot;font-weight: bold;&quot;&gt;integer&lt;/i&gt;&lt;br&gt;nome&amp;nbsp;&lt;b style=&quot;font-style: italic;&quot;&gt;string&lt;/b&gt;&lt;br&gt;sconto&lt;i style=&quot;font-weight: bold;&quot;&gt; boolean&lt;br&gt;&lt;br&gt;&lt;/i&gt;" style="rounded=0;whiteSpace=wrap;html=1;fontColor=#ffffff;fillColor=#60a917;strokeColor=#FFFFFF;perimeterSpacing=3;strokeWidth=4;" vertex="1" parent="1">
                    <mxGeometry x="240" y="850" width="140" height="100" as="geometry"/>
                </mxCell>
                <mxCell id="46" value="PRODOTTI NEL CARRELLO" style="rounded=0;whiteSpace=wrap;html=1;strokeColor=none;strokeWidth=3;fontColor=#ffffff;fillColor=#60a917;" vertex="1" parent="1">
                    <mxGeometry x="355" y="830" width="170" height="10" as="geometry"/>
                </mxCell>
                <mxCell id="47" value="&lt;font color=&quot;#0000ff&quot;&gt;mostrare prodotti nel carrello&lt;/font&gt;" style="rounded=0;whiteSpace=wrap;html=1;strokeColor=#FFFFFF;strokeWidth=4;fontColor=#ffffff;fillColor=#60a917;" vertex="1" parent="1">
                    <mxGeometry x="390" y="850" width="260" height="100" as="geometry"/>
                </mxCell>
                <mxCell id="48" value="FORM??" style="ellipse;whiteSpace=wrap;html=1;strokeWidth=4;" vertex="1" parent="1">
                    <mxGeometry x="170" y="610" width="100" height="80" as="geometry"/>
                </mxCell>
                <mxCell id="49" value="id = 4&lt;br&gt;Paolo &lt;br&gt;Rossi&lt;br&gt;password&lt;br&gt;carta scaduta(false)" style="rounded=0;whiteSpace=wrap;html=1;strokeWidth=4;fontColor=#ffffff;strokeColor=none;fillColor=#1ba1e2;" vertex="1" parent="1">
                    <mxGeometry x="30" y="699.22" width="140" height="120.78" as="geometry"/>
                </mxCell>
                <mxCell id="53" value="ESEMPIO ISTANZA UTENTE" style="rounded=0;whiteSpace=wrap;html=1;strokeWidth=4;fontColor=#ffffff;fillColor=#1ba1e2;strokeColor=#006EAF;" vertex="1" parent="1">
                    <mxGeometry x="30" y="659.22" width="140" height="30" as="geometry"/>
                </mxCell>
                <mxCell id="54" value="4 &lt;br&gt;scatolette cibo per gatti&lt;br&gt;3 euro&lt;br&gt;sconto true&lt;br&gt;" style="rounded=0;whiteSpace=wrap;html=1;strokeWidth=4;fontColor=#ffffff;strokeColor=none;fillColor=#1ba1e2;" vertex="1" parent="1">
                    <mxGeometry x="30" y="880" width="140" height="100" as="geometry"/>
                </mxCell>
                <mxCell id="55" value="ESEMPIO ISTANZA&amp;nbsp;&lt;br&gt;PRODOTTO CARRELLO" style="rounded=0;whiteSpace=wrap;html=1;strokeWidth=4;fontColor=#ffffff;fillColor=#1ba1e2;strokeColor=#006EAF;" vertex="1" parent="1">
                    <mxGeometry x="30" y="840" width="140" height="30" as="geometry"/>
                </mxCell>
            </root>
        </mxGraphModel>
    </diagram>
</mxfile>